<svg xmlns="http://www.w3.org/2000/svg" xmlns:xlink="http://www.w3.org/1999/xlink" width="265" zoomAndPan="magnify" viewBox="0 0 198.75 30.000001" height="40" preserveAspectRatio="xMidYMid meet" version="1.0"><defs><g/></defs><g fill="#2b2b2b" fill-opacity="1"><g transform="translate(5.9879, 28.157823)"><g><path d="M 8.125 0.515625 C 7.25 0.515625 6.410156 0.335938 5.609375 -0.015625 C 4.804688 -0.367188 4.097656 -0.859375 3.484375 -1.484375 C 2.878906 -2.117188 2.398438 -2.878906 2.046875 -3.765625 C 1.703125 -4.660156 1.53125 -5.660156 1.53125 -6.765625 L 1.53125 -10.15625 C 1.53125 -11.257812 1.703125 -12.253906 2.046875 -13.140625 C 2.398438 -14.035156 2.878906 -14.800781 3.484375 -15.4375 C 4.097656 -16.070312 4.804688 -16.5625 5.609375 -16.90625 C 6.410156 -17.257812 7.25 -17.4375 8.125 -17.4375 C 8.84375 -17.4375 9.460938 -17.328125 9.984375 -17.109375 C 10.503906 -16.898438 10.945312 -16.671875 11.3125 -16.421875 C 11.71875 -16.128906 12.066406 -15.789062 12.359375 -15.40625 L 12.703125 -15.40625 L 12.703125 -21.84375 C 12.703125 -22.425781 12.925781 -22.9375 13.375 -23.375 C 13.820312 -23.820312 14.382812 -24.046875 15.0625 -24.046875 C 15.738281 -24.046875 16.300781 -23.820312 16.75 -23.375 C 17.207031 -22.9375 17.4375 -22.425781 17.4375 -21.84375 L 17.4375 -2.03125 C 17.4375 -1.445312 17.207031 -0.929688 16.75 -0.484375 C 16.300781 -0.046875 15.738281 0.171875 15.0625 0.171875 C 14.632812 0.171875 14.269531 0.0859375 13.96875 -0.078125 C 13.664062 -0.253906 13.421875 -0.453125 13.234375 -0.671875 C 13.015625 -0.921875 12.835938 -1.207031 12.703125 -1.53125 L 12.359375 -1.53125 C 12.066406 -1.144531 11.71875 -0.804688 11.3125 -0.515625 C 10.945312 -0.265625 10.503906 -0.03125 9.984375 0.1875 C 9.460938 0.40625 8.84375 0.515625 8.125 0.515625 Z M 9.484375 -3.5625 C 10.429688 -3.5625 11.203125 -3.859375 11.796875 -4.453125 C 12.398438 -5.046875 12.703125 -5.816406 12.703125 -6.765625 L 12.703125 -10.15625 C 12.703125 -11.101562 12.398438 -11.875 11.796875 -12.46875 C 11.203125 -13.070312 10.429688 -13.375 9.484375 -13.375 C 8.535156 -13.375 7.757812 -13.070312 7.15625 -12.46875 C 6.5625 -11.875 6.265625 -11.101562 6.265625 -10.15625 L 6.265625 -6.765625 C 6.265625 -5.816406 6.5625 -5.046875 7.15625 -4.453125 C 7.757812 -3.859375 8.535156 -3.5625 9.484375 -3.5625 Z M 9.484375 -3.5625 "/></g></g></g><g fill="#2b2b2b" fill-opacity="1"><g transform="translate(23.184002, 28.157823)"><g><path d="M 9.65625 0.515625 C 8.457031 0.515625 7.359375 0.316406 6.359375 -0.078125 C 5.367188 -0.472656 4.519531 -1.003906 3.8125 -1.671875 C 3.101562 -2.335938 2.546875 -3.109375 2.140625 -3.984375 C 1.734375 -4.867188 1.53125 -5.796875 1.53125 -6.765625 L 1.53125 -10.15625 C 1.53125 -11.125 1.734375 -12.046875 2.140625 -12.921875 C 2.546875 -13.804688 3.101562 -14.582031 3.8125 -15.25 C 4.519531 -15.914062 5.367188 -16.445312 6.359375 -16.84375 C 7.359375 -17.238281 8.457031 -17.4375 9.65625 -17.4375 C 10.820312 -17.4375 11.90625 -17.238281 12.90625 -16.84375 C 13.914062 -16.445312 14.773438 -15.914062 15.484375 -15.25 C 16.203125 -14.582031 16.765625 -13.804688 17.171875 -12.921875 C 17.578125 -12.046875 17.78125 -11.125 17.78125 -10.15625 L 17.78125 -6.765625 C 17.78125 -5.796875 17.578125 -4.867188 17.171875 -3.984375 C 16.765625 -3.109375 16.203125 -2.335938 15.484375 -1.671875 C 14.773438 -1.003906 13.914062 -0.472656 12.90625 -0.078125 C 11.90625 0.316406 10.820312 0.515625 9.65625 0.515625 Z M 9.65625 -3.5625 C 10.664062 -3.5625 11.476562 -3.859375 12.09375 -4.453125 C 12.71875 -5.046875 13.03125 -5.816406 13.03125 -6.765625 L 13.03125 -10.15625 C 13.03125 -11.101562 12.71875 -11.875 12.09375 -12.46875 C 11.476562 -13.070312 10.664062 -13.375 9.65625 -13.375 C 8.632812 -13.375 7.8125 -13.070312 7.1875 -12.46875 C 6.570312 -11.875 6.265625 -11.101562 6.265625 -10.15625 L 6.265625 -6.765625 C 6.265625 -5.816406 6.570312 -5.046875 7.1875 -4.453125 C 7.8125 -3.859375 8.632812 -3.5625 9.65625 -3.5625 Z M 9.65625 -3.5625 "/></g></g></g><g fill="#2b2b2b" fill-opacity="1"><g transform="translate(40.210847, 28.157823)"><g><path d="M 8.296875 0.515625 C 7.441406 0.515625 6.632812 0.34375 5.875 0 C 5.113281 -0.34375 4.453125 -0.828125 3.890625 -1.453125 C 3.328125 -2.085938 2.875 -2.835938 2.53125 -3.703125 C 2.195312 -4.578125 2.03125 -5.546875 2.03125 -6.609375 L 2.03125 -14.890625 C 2.03125 -15.484375 2.253906 -16 2.703125 -16.4375 C 3.160156 -16.875 3.726562 -17.09375 4.40625 -17.09375 C 5.082031 -17.09375 5.644531 -16.875 6.09375 -16.4375 C 6.539062 -16 6.765625 -15.484375 6.765625 -14.890625 L 6.765625 -6.609375 C 6.765625 -5.742188 7.054688 -5.019531 7.640625 -4.4375 C 8.234375 -3.851562 8.957031 -3.5625 9.8125 -3.5625 C 10.675781 -3.5625 11.398438 -3.851562 11.984375 -4.4375 C 12.566406 -5.019531 12.859375 -5.742188 12.859375 -6.609375 L 12.859375 -14.890625 C 12.859375 -15.484375 13.082031 -16 13.53125 -16.4375 C 13.988281 -16.875 14.554688 -17.09375 15.234375 -17.09375 C 15.910156 -17.09375 16.472656 -16.875 16.921875 -16.4375 C 17.378906 -16 17.609375 -15.484375 17.609375 -14.890625 L 17.609375 -2.03125 C 17.609375 -1.445312 17.378906 -0.929688 16.921875 -0.484375 C 16.472656 -0.046875 15.910156 0.171875 15.234375 0.171875 C 14.804688 0.171875 14.4375 0.0859375 14.125 -0.078125 C 13.820312 -0.253906 13.582031 -0.453125 13.40625 -0.671875 C 13.175781 -0.921875 12.992188 -1.207031 12.859375 -1.53125 L 12.53125 -1.53125 C 12.238281 -1.144531 11.890625 -0.804688 11.484375 -0.515625 C 11.117188 -0.265625 10.675781 -0.03125 10.15625 0.1875 C 9.632812 0.40625 9.015625 0.515625 8.296875 0.515625 Z M 8.296875 0.515625 "/></g></g></g><g fill="#2b2b2b" fill-opacity="1"><g transform="translate(57.57622, 28.157823)"><g><path d="M 9.65625 0 C 8.769531 0 7.941406 -0.15625 7.171875 -0.46875 C 6.410156 -0.789062 5.742188 -1.226562 5.171875 -1.78125 C 4.609375 -2.332031 4.171875 -2.972656 3.859375 -3.703125 C 3.546875 -4.441406 3.390625 -5.238281 3.390625 -6.09375 L 3.390625 -12.859375 L 2.875 -12.859375 C 2.195312 -12.859375 1.660156 -13.050781 1.265625 -13.4375 C 0.867188 -13.820312 0.671875 -14.304688 0.671875 -14.890625 C 0.671875 -15.484375 0.867188 -15.972656 1.265625 -16.359375 C 1.660156 -16.742188 2.195312 -16.9375 2.875 -16.9375 L 3.390625 -16.9375 L 3.390625 -19.125 C 3.390625 -19.71875 3.613281 -20.234375 4.0625 -20.671875 C 4.507812 -21.109375 5.070312 -21.328125 5.75 -21.328125 C 6.425781 -21.328125 6.988281 -21.109375 7.4375 -20.671875 C 7.894531 -20.234375 8.125 -19.71875 8.125 -19.125 L 8.125 -16.9375 L 11.6875 -16.9375 C 12.363281 -16.9375 12.894531 -16.742188 13.28125 -16.359375 C 13.675781 -15.972656 13.875 -15.484375 13.875 -14.890625 C 13.875 -14.304688 13.675781 -13.820312 13.28125 -13.4375 C 12.894531 -13.050781 12.363281 -12.859375 11.6875 -12.859375 L 8.125 -12.859375 L 8.125 -6.09375 C 8.125 -5.414062 8.273438 -4.90625 8.578125 -4.5625 C 8.890625 -4.226562 9.300781 -4.0625 9.8125 -4.0625 L 12.53125 -4.0625 C 13.09375 -4.0625 13.570312 -3.863281 13.96875 -3.46875 C 14.363281 -3.070312 14.5625 -2.59375 14.5625 -2.03125 C 14.5625 -1.46875 14.363281 -0.988281 13.96875 -0.59375 C 13.570312 -0.195312 13.09375 0 12.53125 0 Z M 9.65625 0 "/></g></g></g><g fill="#2b2b2b" fill-opacity="1"><g transform="translate(70.202296, 28.157823)"><g><path d="M 9.65625 0.515625 C 8.457031 0.515625 7.359375 0.316406 6.359375 -0.078125 C 5.367188 -0.472656 4.519531 -1.003906 3.8125 -1.671875 C 3.101562 -2.335938 2.546875 -3.109375 2.140625 -3.984375 C 1.734375 -4.867188 1.53125 -5.796875 1.53125 -6.765625 L 1.53125 -10.15625 C 1.53125 -11.125 1.734375 -12.046875 2.140625 -12.921875 C 2.546875 -13.804688 3.101562 -14.582031 3.8125 -15.25 C 4.519531 -15.914062 5.367188 -16.445312 6.359375 -16.84375 C 7.359375 -17.238281 8.457031 -17.4375 9.65625 -17.4375 C 10.820312 -17.4375 11.90625 -17.238281 12.90625 -16.84375 C 13.914062 -16.445312 14.773438 -15.914062 15.484375 -15.25 C 16.203125 -14.582031 16.765625 -13.804688 17.171875 -12.921875 C 17.578125 -12.046875 17.78125 -11.125 17.78125 -10.15625 L 17.78125 -6.765625 C 17.78125 -5.796875 17.578125 -4.867188 17.171875 -3.984375 C 16.765625 -3.109375 16.203125 -2.335938 15.484375 -1.671875 C 14.773438 -1.003906 13.914062 -0.472656 12.90625 -0.078125 C 11.90625 0.316406 10.820312 0.515625 9.65625 0.515625 Z M 9.65625 -3.5625 C 10.664062 -3.5625 11.476562 -3.859375 12.09375 -4.453125 C 12.71875 -5.046875 13.03125 -5.816406 13.03125 -6.765625 L 13.03125 -10.15625 C 13.03125 -11.101562 12.71875 -11.875 12.09375 -12.46875 C 11.476562 -13.070312 10.664062 -13.375 9.65625 -13.375 C 8.632812 -13.375 7.8125 -13.070312 7.1875 -12.46875 C 6.570312 -11.875 6.265625 -11.101562 6.265625 -10.15625 L 6.265625 -6.765625 C 6.265625 -5.816406 6.570312 -5.046875 7.1875 -4.453125 C 7.8125 -3.859375 8.632812 -3.5625 9.65625 -3.5625 Z M 9.65625 -3.5625 "/></g></g></g><g fill="#2b2b2b" fill-opacity="1"><g transform="translate(87.229139, 28.157823)"><g><path d="M 4.40625 0.171875 C 3.726562 0.171875 3.160156 -0.046875 2.703125 -0.484375 C 2.253906 -0.929688 2.03125 -1.445312 2.03125 -2.03125 L 2.03125 -14.890625 C 2.03125 -15.484375 2.253906 -16 2.703125 -16.4375 C 3.160156 -16.875 3.726562 -17.09375 4.40625 -17.09375 C 4.832031 -17.09375 5.195312 -17.003906 5.5 -16.828125 C 5.800781 -16.648438 6.046875 -16.457031 6.234375 -16.25 C 6.453125 -16 6.628906 -15.71875 6.765625 -15.40625 L 7.109375 -15.40625 C 7.359375 -15.738281 7.664062 -16.039062 8.03125 -16.3125 C 8.320312 -16.5625 8.675781 -16.78125 9.09375 -16.96875 C 9.507812 -17.164062 9.976562 -17.265625 10.5 -17.265625 L 12.015625 -17.265625 C 12.578125 -17.265625 13.054688 -17.066406 13.453125 -16.671875 C 13.847656 -16.273438 14.046875 -15.796875 14.046875 -15.234375 C 14.046875 -14.671875 13.847656 -14.191406 13.453125 -13.796875 C 13.054688 -13.398438 12.578125 -13.203125 12.015625 -13.203125 L 9.984375 -13.203125 C 9.035156 -13.203125 8.257812 -12.898438 7.65625 -12.296875 C 7.0625 -11.703125 6.765625 -10.929688 6.765625 -9.984375 L 6.765625 -2.03125 C 6.765625 -1.445312 6.539062 -0.929688 6.09375 -0.484375 C 5.644531 -0.046875 5.082031 0.171875 4.40625 0.171875 Z M 4.40625 0.171875 "/></g></g></g><g fill="#2b2b2b" fill-opacity="1"><g transform="translate(99.008919, 28.157823)"><g/></g></g><g fill="#2b2b2b" fill-opacity="1"><g transform="translate(105.710889, 28.157823)"><g><path d="M 9.65625 0.515625 C 8.457031 0.515625 7.359375 0.316406 6.359375 -0.078125 C 5.367188 -0.472656 4.519531 -1.003906 3.8125 -1.671875 C 3.101562 -2.335938 2.546875 -3.109375 2.140625 -3.984375 C 1.734375 -4.867188 1.53125 -5.796875 1.53125 -6.765625 L 1.53125 -10.15625 C 1.53125 -11.125 1.734375 -12.046875 2.140625 -12.921875 C 2.546875 -13.804688 3.101562 -14.582031 3.8125 -15.25 C 4.519531 -15.914062 5.367188 -16.445312 6.359375 -16.84375 C 7.359375 -17.238281 8.457031 -17.4375 9.65625 -17.4375 C 10.664062 -17.4375 11.585938 -17.28125 12.421875 -16.96875 C 13.253906 -16.664062 13.960938 -16.285156 14.546875 -15.828125 C 15.140625 -15.367188 15.597656 -14.851562 15.921875 -14.28125 C 16.253906 -13.71875 16.421875 -13.191406 16.421875 -12.703125 C 16.421875 -12.179688 16.226562 -11.738281 15.84375 -11.375 C 15.457031 -11.007812 14.972656 -10.828125 14.390625 -10.828125 C 13.867188 -10.828125 13.460938 -10.957031 13.171875 -11.21875 C 12.878906 -11.476562 12.578125 -11.769531 12.265625 -12.09375 C 11.960938 -12.425781 11.617188 -12.722656 11.234375 -12.984375 C 10.859375 -13.242188 10.332031 -13.375 9.65625 -13.375 C 8.632812 -13.375 7.8125 -13.070312 7.1875 -12.46875 C 6.570312 -11.875 6.265625 -11.101562 6.265625 -10.15625 L 6.265625 -6.765625 C 6.265625 -5.816406 6.570312 -5.046875 7.1875 -4.453125 C 7.8125 -3.859375 8.632812 -3.5625 9.65625 -3.5625 C 10.332031 -3.5625 10.878906 -3.710938 11.296875 -4.015625 C 11.710938 -4.316406 12.085938 -4.640625 12.421875 -4.984375 C 12.765625 -5.335938 13.101562 -5.664062 13.4375 -5.96875 C 13.78125 -6.28125 14.210938 -6.4375 14.734375 -6.4375 C 15.316406 -6.4375 15.800781 -6.253906 16.1875 -5.890625 C 16.570312 -5.523438 16.765625 -5.085938 16.765625 -4.578125 C 16.765625 -4.054688 16.582031 -3.5 16.21875 -2.90625 C 15.851562 -2.320312 15.351562 -1.773438 14.71875 -1.265625 C 14.09375 -0.765625 13.34375 -0.34375 12.46875 0 C 11.601562 0.34375 10.664062 0.515625 9.65625 0.515625 Z M 9.65625 0.515625 "/></g></g></g><g fill="#2b2b2b" fill-opacity="1"><g transform="translate(121.045134, 28.157823)"><g><path d="M 4.40625 0.171875 C 3.726562 0.171875 3.160156 -0.046875 2.703125 -0.484375 C 2.253906 -0.929688 2.03125 -1.445312 2.03125 -2.03125 L 2.03125 -21.84375 C 2.03125 -22.425781 2.253906 -22.9375 2.703125 -23.375 C 3.160156 -23.820312 3.726562 -24.046875 4.40625 -24.046875 C 5.082031 -24.046875 5.644531 -23.820312 6.09375 -23.375 C 6.539062 -22.9375 6.765625 -22.425781 6.765625 -21.84375 L 6.765625 -2.03125 C 6.765625 -1.445312 6.539062 -0.929688 6.09375 -0.484375 C 5.644531 -0.046875 5.082031 0.171875 4.40625 0.171875 Z M 4.40625 0.171875 "/></g></g></g><g fill="#2b2b2b" fill-opacity="1"><g transform="translate(127.577846, 28.157823)"><g><path d="M 4.578125 0.171875 C 3.898438 0.171875 3.332031 -0.046875 2.875 -0.484375 C 2.425781 -0.929688 2.203125 -1.445312 2.203125 -2.03125 L 2.203125 -14.890625 C 2.203125 -15.484375 2.425781 -16 2.875 -16.4375 C 3.332031 -16.875 3.898438 -17.09375 4.578125 -17.09375 C 5.253906 -17.09375 5.816406 -16.875 6.265625 -16.4375 C 6.710938 -16 6.9375 -15.484375 6.9375 -14.890625 L 6.9375 -2.03125 C 6.9375 -1.445312 6.710938 -0.929688 6.265625 -0.484375 C 5.816406 -0.046875 5.253906 0.171875 4.578125 0.171875 Z M 4.90625 -19.984375 C 4.382812 -19.984375 3.941406 -20.160156 3.578125 -20.515625 C 3.222656 -20.878906 3.046875 -21.320312 3.046875 -21.84375 C 3.046875 -22.09375 3.101562 -22.351562 3.21875 -22.625 C 3.257812 -22.757812 3.316406 -22.894531 3.390625 -23.03125 L 5.25 -26.75 C 5.476562 -27.175781 5.753906 -27.507812 6.078125 -27.75 C 6.398438 -27.988281 6.859375 -28.109375 7.453125 -28.109375 C 8.035156 -28.109375 8.546875 -27.882812 8.984375 -27.4375 C 9.429688 -27 9.65625 -26.488281 9.65625 -25.90625 C 9.65625 -25.675781 9.617188 -25.460938 9.546875 -25.265625 C 9.484375 -25.078125 9.40625 -24.90625 9.3125 -24.75 C 9.21875 -24.570312 9.101562 -24.390625 8.96875 -24.203125 L 7.109375 -21.5 C 6.816406 -21.070312 6.503906 -20.710938 6.171875 -20.421875 C 5.847656 -20.128906 5.425781 -19.984375 4.90625 -19.984375 Z M 4.90625 -19.984375 "/></g></g></g><g fill="#2b2b2b" fill-opacity="1"><g transform="translate(134.449074, 28.157823)"><g><path d="M 4.40625 0.171875 C 3.726562 0.171875 3.160156 -0.046875 2.703125 -0.484375 C 2.253906 -0.929688 2.03125 -1.445312 2.03125 -2.03125 L 2.03125 -14.890625 C 2.03125 -15.484375 2.253906 -16 2.703125 -16.4375 C 3.160156 -16.875 3.726562 -17.09375 4.40625 -17.09375 C 4.832031 -17.09375 5.195312 -17.003906 5.5 -16.828125 C 5.800781 -16.648438 6.046875 -16.457031 6.234375 -16.25 C 6.453125 -16 6.628906 -15.71875 6.765625 -15.40625 L 7.109375 -15.40625 C 7.398438 -15.789062 7.75 -16.128906 8.15625 -16.421875 C 8.519531 -16.671875 8.960938 -16.898438 9.484375 -17.109375 C 10.003906 -17.328125 10.625 -17.4375 11.34375 -17.4375 C 12.175781 -17.4375 12.972656 -17.265625 13.734375 -16.921875 C 14.503906 -16.585938 15.171875 -16.101562 15.734375 -15.46875 C 16.304688 -14.84375 16.757812 -14.09375 17.09375 -13.21875 C 17.4375 -12.351562 17.609375 -11.390625 17.609375 -10.328125 L 17.609375 -2.03125 C 17.609375 -1.445312 17.378906 -0.929688 16.921875 -0.484375 C 16.472656 -0.046875 15.910156 0.171875 15.234375 0.171875 C 14.554688 0.171875 13.988281 -0.046875 13.53125 -0.484375 C 13.082031 -0.929688 12.859375 -1.445312 12.859375 -2.03125 L 12.859375 -10.328125 C 12.859375 -11.179688 12.566406 -11.898438 11.984375 -12.484375 C 11.398438 -13.078125 10.675781 -13.375 9.8125 -13.375 C 8.957031 -13.375 8.234375 -13.078125 7.640625 -12.484375 C 7.054688 -11.898438 6.765625 -11.179688 6.765625 -10.328125 L 6.765625 -2.03125 C 6.765625 -1.445312 6.539062 -0.929688 6.09375 -0.484375 C 5.644531 -0.046875 5.082031 0.171875 4.40625 0.171875 Z M 4.40625 0.171875 "/></g></g></g><g fill="#2b2b2b" fill-opacity="1"><g transform="translate(151.64518, 28.157823)"><g><path d="M 4.578125 0.171875 C 3.898438 0.171875 3.332031 -0.046875 2.875 -0.484375 C 2.425781 -0.929688 2.203125 -1.445312 2.203125 -2.03125 L 2.203125 -14.890625 C 2.203125 -15.484375 2.425781 -16 2.875 -16.4375 C 3.332031 -16.875 3.898438 -17.09375 4.578125 -17.09375 C 5.253906 -17.09375 5.816406 -16.875 6.265625 -16.4375 C 6.710938 -16 6.9375 -15.484375 6.9375 -14.890625 L 6.9375 -2.03125 C 6.9375 -1.445312 6.710938 -0.929688 6.265625 -0.484375 C 5.816406 -0.046875 5.253906 0.171875 4.578125 0.171875 Z M 4.578125 -19.640625 C 3.804688 -19.640625 3.1875 -19.863281 2.71875 -20.3125 C 2.257812 -20.769531 2.03125 -21.335938 2.03125 -22.015625 C 2.03125 -22.691406 2.257812 -23.253906 2.71875 -23.703125 C 3.1875 -24.148438 3.804688 -24.375 4.578125 -24.375 C 5.335938 -24.375 5.945312 -24.148438 6.40625 -23.703125 C 6.875 -23.253906 7.109375 -22.691406 7.109375 -22.015625 C 7.109375 -21.335938 6.867188 -20.769531 6.390625 -20.3125 C 5.921875 -19.863281 5.316406 -19.640625 4.578125 -19.640625 Z M 4.578125 -19.640625 "/></g></g></g><g fill="#2b2b2b" fill-opacity="1"><g transform="translate(158.516409, 28.157823)"><g><path d="M 9.65625 0.515625 C 8.457031 0.515625 7.359375 0.316406 6.359375 -0.078125 C 5.367188 -0.472656 4.519531 -1.003906 3.8125 -1.671875 C 3.101562 -2.335938 2.546875 -3.109375 2.140625 -3.984375 C 1.734375 -4.867188 1.53125 -5.796875 1.53125 -6.765625 L 1.53125 -10.15625 C 1.53125 -11.125 1.734375 -12.046875 2.140625 -12.921875 C 2.546875 -13.804688 3.101562 -14.582031 3.8125 -15.25 C 4.519531 -15.914062 5.367188 -16.445312 6.359375 -16.84375 C 7.359375 -17.238281 8.457031 -17.4375 9.65625 -17.4375 C 10.664062 -17.4375 11.585938 -17.28125 12.421875 -16.96875 C 13.253906 -16.664062 13.960938 -16.285156 14.546875 -15.828125 C 15.140625 -15.367188 15.597656 -14.851562 15.921875 -14.28125 C 16.253906 -13.71875 16.421875 -13.191406 16.421875 -12.703125 C 16.421875 -12.179688 16.226562 -11.738281 15.84375 -11.375 C 15.457031 -11.007812 14.972656 -10.828125 14.390625 -10.828125 C 13.867188 -10.828125 13.460938 -10.957031 13.171875 -11.21875 C 12.878906 -11.476562 12.578125 -11.769531 12.265625 -12.09375 C 11.960938 -12.425781 11.617188 -12.722656 11.234375 -12.984375 C 10.859375 -13.242188 10.332031 -13.375 9.65625 -13.375 C 8.632812 -13.375 7.8125 -13.070312 7.1875 -12.46875 C 6.570312 -11.875 6.265625 -11.101562 6.265625 -10.15625 L 6.265625 -6.765625 C 6.265625 -5.816406 6.570312 -5.046875 7.1875 -4.453125 C 7.8125 -3.859375 8.632812 -3.5625 9.65625 -3.5625 C 10.332031 -3.5625 10.878906 -3.710938 11.296875 -4.015625 C 11.710938 -4.316406 12.085938 -4.640625 12.421875 -4.984375 C 12.765625 -5.335938 13.101562 -5.664062 13.4375 -5.96875 C 13.78125 -6.28125 14.210938 -6.4375 14.734375 -6.4375 C 15.316406 -6.4375 15.800781 -6.253906 16.1875 -5.890625 C 16.570312 -5.523438 16.765625 -5.085938 16.765625 -4.578125 C 16.765625 -4.054688 16.582031 -3.5 16.21875 -2.90625 C 15.851562 -2.320312 15.351562 -1.773438 14.71875 -1.265625 C 14.09375 -0.765625 13.34375 -0.34375 12.46875 0 C 11.601562 0.34375 10.664062 0.515625 9.65625 0.515625 Z M 9.65625 0.515625 "/></g></g></g><g fill="#2b2b2b" fill-opacity="1"><g transform="translate(173.850653, 28.157823)"><g><path d="M 7.109375 0.515625 C 6.253906 0.515625 5.472656 0.367188 4.765625 0.078125 C 4.066406 -0.203125 3.460938 -0.578125 2.953125 -1.046875 C 2.453125 -1.523438 2.0625 -2.078125 1.78125 -2.703125 C 1.5 -3.335938 1.359375 -4.015625 1.359375 -4.734375 C 1.359375 -5.503906 1.515625 -6.226562 1.828125 -6.90625 C 2.140625 -7.582031 2.609375 -8.175781 3.234375 -8.6875 C 3.859375 -9.195312 4.632812 -9.597656 5.5625 -9.890625 C 6.5 -10.179688 7.578125 -10.328125 8.796875 -10.328125 L 12.1875 -10.328125 C 12.1875 -11.273438 11.914062 -12.019531 11.375 -12.5625 C 10.832031 -13.101562 10.085938 -13.375 9.140625 -13.375 C 8.503906 -13.375 7.992188 -13.273438 7.609375 -13.078125 C 7.234375 -12.890625 6.890625 -12.675781 6.578125 -12.4375 C 6.273438 -12.207031 5.957031 -11.992188 5.625 -11.796875 C 5.300781 -11.609375 4.894531 -11.515625 4.40625 -11.515625 C 3.8125 -11.515625 3.320312 -11.691406 2.9375 -12.046875 C 2.5625 -12.410156 2.375 -12.851562 2.375 -13.375 C 2.375 -13.757812 2.523438 -14.1875 2.828125 -14.65625 C 3.128906 -15.132812 3.570312 -15.578125 4.15625 -15.984375 C 4.75 -16.390625 5.460938 -16.734375 6.296875 -17.015625 C 7.128906 -17.296875 8.078125 -17.4375 9.140625 -17.4375 C 10.296875 -17.4375 11.347656 -17.25 12.296875 -16.875 C 13.242188 -16.5 14.0625 -15.988281 14.75 -15.34375 C 15.4375 -14.707031 15.972656 -13.953125 16.359375 -13.078125 C 16.742188 -12.210938 16.9375 -11.296875 16.9375 -10.328125 L 16.9375 -2.03125 C 16.9375 -1.445312 16.707031 -0.929688 16.25 -0.484375 C 15.800781 -0.046875 15.238281 0.171875 14.5625 0.171875 C 14.132812 0.171875 13.765625 0.0859375 13.453125 -0.078125 C 13.148438 -0.253906 12.910156 -0.453125 12.734375 -0.671875 C 12.503906 -0.921875 12.320312 -1.207031 12.1875 -1.53125 L 11.84375 -1.53125 C 11.53125 -1.144531 11.148438 -0.804688 10.703125 -0.515625 C 10.316406 -0.265625 9.816406 -0.03125 9.203125 0.1875 C 8.597656 0.40625 7.898438 0.515625 7.109375 0.515625 Z M 8.46875 -3.21875 C 9.007812 -3.21875 9.507812 -3.296875 9.96875 -3.453125 C 10.4375 -3.609375 10.828125 -3.78125 11.140625 -3.96875 C 11.523438 -4.1875 11.875 -4.441406 12.1875 -4.734375 L 12.1875 -6.9375 L 8.796875 -6.9375 C 7.847656 -6.9375 7.160156 -6.753906 6.734375 -6.390625 C 6.304688 -6.035156 6.09375 -5.597656 6.09375 -5.078125 C 6.09375 -4.554688 6.296875 -4.113281 6.703125 -3.75 C 7.109375 -3.394531 7.695312 -3.21875 8.46875 -3.21875 Z M 8.46875 -3.21875 "/></g></g></g></svg>