<svg width="265" height="34" viewBox="0 0 265 34" fill="none" xmlns="http://www.w3.org/2000/svg">
<g clip-path="url(#clip0_1_5)">
<path d="M22.9224 33H18.5781L18.3179 30.1973C17.4504 31.1982 16.396 31.9857 15.1548 32.5596C13.9136 33.1201 12.5656 33.4004 11.1108 33.4004C9.229 33.4004 7.54736 32.9466 6.06592 32.0391C4.58447 31.1315 3.41667 29.897 2.5625 28.3354C1.72168 26.7606 1.30127 24.9788 1.30127 22.9902C1.30127 21.0016 1.72168 19.2266 2.5625 17.665C3.41667 16.0902 4.58447 14.849 6.06592 13.9414C7.54736 13.0339 9.229 12.5801 11.1108 12.5801C12.4855 12.5801 13.7601 12.827 14.9346 13.3208C16.109 13.8146 17.13 14.5086 17.9976 15.4028V2.9707H22.9224V33ZM12.1919 28.9761C13.2596 28.9761 14.2339 28.7358 15.1147 28.2554C15.9956 27.7616 16.6963 27.0876 17.2168 26.2334C17.7373 25.3792 17.9976 24.4049 17.9976 23.3105V22.6099C17.9976 21.5288 17.7373 20.5679 17.2168 19.7271C16.6963 18.8729 15.9956 18.2056 15.1147 17.7251C14.2339 17.2313 13.2596 16.9844 12.1919 16.9844C11.0708 16.9844 10.0698 17.2513 9.18896 17.7852C8.30811 18.3057 7.6141 19.0197 7.10693 19.9272C6.59977 20.8215 6.34619 21.8358 6.34619 22.9702C6.34619 24.118 6.59977 25.1457 7.10693 26.0532C7.6141 26.9608 8.30811 27.6748 9.18896 28.1953C10.0698 28.7158 11.0708 28.9761 12.1919 28.9761ZM37.5566 33.4004C35.5146 33.4004 33.6862 32.9466 32.0713 32.0391C30.4697 31.1315 29.2018 29.897 28.2676 28.3354C27.3467 26.7606 26.8862 24.9788 26.8862 22.9902C26.8862 21.0016 27.3467 19.2266 28.2676 17.665C29.2018 16.0902 30.4697 14.849 32.0713 13.9414C33.6862 13.0339 35.5146 12.5801 37.5566 12.5801C39.5853 12.5801 41.4004 13.0339 43.002 13.9414C44.6035 14.849 45.8581 16.0902 46.7656 17.665C47.6865 19.2266 48.147 21.0016 48.147 22.9902C48.147 24.9788 47.6865 26.7606 46.7656 28.3354C45.8581 29.897 44.6035 31.1315 43.002 32.0391C41.4004 32.9466 39.5853 33.4004 37.5566 33.4004ZM37.5166 28.9761C38.5843 28.9761 39.5386 28.7158 40.3794 28.1953C41.2202 27.6748 41.8809 26.9608 42.3613 26.0532C42.8551 25.1457 43.1021 24.118 43.1021 22.9702C43.1021 21.8358 42.8551 20.8215 42.3613 19.9272C41.8809 19.0197 41.2202 18.3057 40.3794 17.7852C39.5386 17.2646 38.5843 17.0044 37.5166 17.0044C36.4622 17.0044 35.508 17.2646 34.6538 17.7852C33.813 18.3057 33.1457 19.0197 32.6519 19.9272C32.1714 20.8215 31.9312 21.8358 31.9312 22.9702C31.9312 24.118 32.1714 25.1457 32.6519 26.0532C33.1457 26.9608 33.813 27.6748 34.6538 28.1953C35.508 28.7158 36.4622 28.9761 37.5166 28.9761ZM71.2695 33H67.2056L67.0454 29.7769C66.3247 30.9513 65.3771 31.8522 64.2026 32.4795C63.0282 33.0934 61.6401 33.4004 60.0386 33.4004C57.4627 33.4004 55.4274 32.613 53.9326 31.0381C52.4512 29.4499 51.7104 27.2677 51.7104 24.4917V12.9805H56.6353V23.5508C56.6353 25.2191 57.0557 26.5404 57.8965 27.5146C58.7507 28.4756 59.9051 28.9561 61.3599 28.9561C62.868 28.9561 64.0758 28.4422 64.9834 27.4146C65.891 26.3869 66.3447 25.0189 66.3447 23.3105V12.9805H71.2695V33ZM89.8076 32.4795C88.3395 33.0934 86.9181 33.4004 85.5435 33.4004C84.1421 33.4004 82.9076 33.1001 81.8398 32.4995C80.7855 31.8989 79.958 31.0648 79.3574 29.9971C78.7702 28.916 78.4766 27.6615 78.4766 26.2334V17.3848H74.9731V12.9805H78.7368V7.97559H83.4014V12.9805H89.1069V17.3848H83.4014V25.3325C83.4014 26.467 83.7083 27.3612 84.3223 28.0151C84.9495 28.6691 85.7303 28.9961 86.6646 28.9961C87.492 28.9961 88.3128 28.7425 89.127 28.2354L89.8076 32.4795ZM102.82 33.4004C100.778 33.4004 98.9499 32.9466 97.335 32.0391C95.7334 31.1315 94.4655 29.897 93.5312 28.3354C92.6104 26.7606 92.1499 24.9788 92.1499 22.9902C92.1499 21.0016 92.6104 19.2266 93.5312 17.665C94.4655 16.0902 95.7334 14.849 97.335 13.9414C98.9499 13.0339 100.778 12.5801 102.82 12.5801C104.849 12.5801 106.664 13.0339 108.266 13.9414C109.867 14.849 111.122 16.0902 112.029 17.665C112.95 19.2266 113.411 21.0016 113.411 22.9902C113.411 24.9788 112.95 26.7606 112.029 28.3354C111.122 29.897 109.867 31.1315 108.266 32.0391C106.664 32.9466 104.849 33.4004 102.82 33.4004ZM102.78 28.9761C103.848 28.9761 104.802 28.7158 105.643 28.1953C106.484 27.6748 107.145 26.9608 107.625 26.0532C108.119 25.1457 108.366 24.118 108.366 22.9702C108.366 21.8358 108.119 20.8215 107.625 19.9272C107.145 19.0197 106.484 18.3057 105.643 17.7852C104.802 17.2646 103.848 17.0044 102.78 17.0044C101.726 17.0044 100.772 17.2646 99.9175 17.7852C99.0767 18.3057 98.4093 19.0197 97.9155 19.9272C97.4351 20.8215 97.1948 21.8358 97.1948 22.9702C97.1948 24.118 97.4351 25.1457 97.9155 26.0532C98.4093 26.9608 99.0767 27.6748 99.9175 28.1953C100.772 28.7158 101.726 28.9761 102.78 28.9761ZM122.299 33H117.375V12.9805H121.659L121.839 16.624C122.533 15.3428 123.467 14.3485 124.642 13.6411C125.829 12.9338 127.191 12.5801 128.726 12.5801C129.126 12.5801 129.533 12.6068 129.947 12.6602C130.374 12.7135 130.794 12.7936 131.208 12.9004L130.607 17.3447C129.78 17.1045 128.979 16.9844 128.205 16.9844C127.031 16.9844 125.996 17.258 125.102 17.8052C124.221 18.3524 123.534 19.1131 123.04 20.0874C122.546 21.0483 122.299 22.1694 122.299 23.4507V33ZM161.017 29.917C160.043 31.0247 158.862 31.8856 157.474 32.4995C156.086 33.1001 154.571 33.4004 152.929 33.4004C150.901 33.4004 149.079 32.9466 147.464 32.0391C145.862 31.1315 144.594 29.897 143.66 28.3354C142.739 26.7606 142.279 24.9788 142.279 22.9902C142.279 21.0016 142.739 19.2266 143.66 17.665C144.594 16.0902 145.862 14.849 147.464 13.9414C149.079 13.0339 150.901 12.5801 152.929 12.5801C154.557 12.5801 156.059 12.8804 157.434 13.481C158.822 14.0815 160.003 14.929 160.977 16.0234L158.094 19.0864C157.494 18.4325 156.766 17.9253 155.912 17.5649C155.071 17.2046 154.177 17.0244 153.229 17.0244C152.082 17.0244 151.061 17.278 150.167 17.7852C149.286 18.2923 148.592 18.993 148.084 19.8872C147.591 20.7814 147.344 21.8091 147.344 22.9702C147.344 24.1313 147.591 25.1657 148.084 26.0732C148.592 26.9674 149.286 27.6748 150.167 28.1953C151.061 28.7025 152.082 28.9561 153.229 28.9561C154.177 28.9561 155.078 28.7759 155.932 28.4155C156.786 28.0418 157.507 27.5347 158.094 26.894L161.017 29.917ZM170.166 33H164.901V2.16992H170.166V33ZM179.475 9.69727H175.952L178.895 2.9707H183.419L179.475 9.69727ZM180.416 33H175.511V12.9805H180.416V33ZM205.32 33H200.396V22.4297C200.396 20.7614 199.968 19.4468 199.114 18.4858C198.26 17.5116 197.106 17.0244 195.651 17.0244C194.156 17.0244 192.955 17.5382 192.047 18.5659C191.14 19.5802 190.686 20.9482 190.686 22.6699V33H185.761V12.9805H189.825L189.985 16.2036C190.706 15.0291 191.654 14.1349 192.828 13.521C194.016 12.8937 195.404 12.5801 196.992 12.5801C199.581 12.5801 201.617 13.3675 203.098 14.9424C204.58 16.5173 205.32 18.6927 205.32 21.4688V33ZM212.768 7.67529C212.074 7.67529 211.486 7.43506 211.006 6.95459C210.539 6.46077 210.305 5.86686 210.305 5.17285C210.305 4.49219 210.539 3.91162 211.006 3.43115C211.486 2.93734 212.074 2.69043 212.768 2.69043C213.475 2.69043 214.069 2.93734 214.549 3.43115C215.03 3.91162 215.27 4.49219 215.27 5.17285C215.27 5.86686 215.03 6.46077 214.549 6.95459C214.069 7.43506 213.475 7.67529 212.768 7.67529ZM215.23 33H210.305V12.9805H215.23V33ZM238.012 29.917C237.038 31.0247 235.857 31.8856 234.469 32.4995C233.081 33.1001 231.566 33.4004 229.924 33.4004C227.896 33.4004 226.074 32.9466 224.459 32.0391C222.857 31.1315 221.59 29.897 220.655 28.3354C219.734 26.7606 219.274 24.9788 219.274 22.9902C219.274 21.0016 219.734 19.2266 220.655 17.665C221.59 16.0902 222.857 14.849 224.459 13.9414C226.074 13.0339 227.896 12.5801 229.924 12.5801C231.553 12.5801 233.054 12.8804 234.429 13.481C235.817 14.0815 236.998 14.929 237.972 16.0234L235.089 19.0864C234.489 18.4325 233.761 17.9253 232.907 17.5649C232.066 17.2046 231.172 17.0244 230.225 17.0244C229.077 17.0244 228.056 17.278 227.162 17.7852C226.281 18.2923 225.587 18.993 225.08 19.8872C224.586 20.7814 224.339 21.8091 224.339 22.9702C224.339 24.1313 224.586 25.1657 225.08 26.0732C225.587 26.9674 226.281 27.6748 227.162 28.1953C228.056 28.7025 229.077 28.9561 230.225 28.9561C231.172 28.9561 232.073 28.7759 232.927 28.4155C233.781 28.0418 234.502 27.5347 235.089 26.894L238.012 29.917ZM259.193 33H254.909L254.628 30.5376C253.894 31.4451 252.98 32.1525 251.886 32.6597C250.791 33.1535 249.577 33.4004 248.242 33.4004C246.827 33.4004 245.566 33.1268 244.458 32.5796C243.351 32.019 242.477 31.2583 241.836 30.2974C241.209 29.3364 240.895 28.242 240.895 27.0142C240.895 25.7196 241.235 24.5851 241.916 23.6108C242.61 22.6232 243.551 21.8491 244.739 21.2886C245.94 20.728 247.308 20.4478 248.843 20.4478C249.777 20.4478 250.711 20.5545 251.646 20.7681C252.593 20.9816 253.467 21.2819 254.268 21.6689V21.0283C254.268 20.1475 254.028 19.3867 253.547 18.7461C253.067 18.1055 252.42 17.6117 251.605 17.2646C250.791 16.9043 249.877 16.7241 248.863 16.7241C247.942 16.7241 247.021 16.8843 246.1 17.2046C245.179 17.5116 244.318 17.972 243.518 18.5859L242.116 14.7222C243.397 14.0148 244.705 13.481 246.04 13.1206C247.388 12.7603 248.703 12.5801 249.984 12.5801C251.866 12.5801 253.494 12.9538 254.869 13.7012C256.243 14.4352 257.304 15.4896 258.052 16.8643C258.812 18.2256 259.193 19.8338 259.193 21.689V33ZM249.263 29.4365C250.131 29.4365 250.931 29.2563 251.666 28.896C252.413 28.5356 253.02 28.0352 253.487 27.3945C253.968 26.7406 254.221 25.9932 254.248 25.1523V24.9321C253.621 24.4784 252.913 24.1313 252.126 23.8911C251.339 23.6375 250.544 23.5107 249.744 23.5107C248.516 23.5107 247.508 23.791 246.721 24.3516C245.933 24.8988 245.54 25.6195 245.54 26.5137C245.54 27.0609 245.7 27.5614 246.02 28.0151C246.34 28.4556 246.781 28.8026 247.341 29.0562C247.915 29.3097 248.556 29.4365 249.263 29.4365Z" fill="black"/>
</g>
<defs>
<clipPath id="clip0_1_5">
<rect width="265" height="34" fill="white"/>
</clipPath>
</defs>
</svg>
