<svg xmlns="http://www.w3.org/2000/svg" xmlns:xlink="http://www.w3.org/1999/xlink" width="40" zoomAndPan="magnify" viewBox="0 0 30 30.000001" height="40" preserveAspectRatio="xMidYMid meet" version="1.0"><defs><clipPath id="a89cf7e4b1"><path d="M 0.484375 0 L 21 0 L 21 29 L 0.484375 29 Z M 0.484375 0 " clip-rule="nonzero"/></clipPath></defs><path fill="#27293e" d="M 21.5 18.664062 L 17.410156 18.664062 C 17.410156 12.984375 22.269531 8.355469 28.253906 8.355469 L 28.253906 12.246094 C 24.53125 12.246094 21.507812 15.121094 21.507812 18.65625 Z M 21.5 18.664062 " fill-opacity="1" fill-rule="nonzero"/><path fill="#000000" d="M 21.5 18.664062 L 17.410156 18.664062 C 17.410156 12.984375 22.269531 8.355469 28.253906 8.355469 L 28.253906 12.246094 C 24.53125 12.246094 21.507812 15.121094 21.507812 18.65625 Z M 21.5 18.664062 " fill-opacity="0.2" fill-rule="nonzero"/><g clip-path="url(#a89cf7e4b1)"><path fill="#27293e" d="M 11.328125 28.964844 C 5.351562 28.964844 0.484375 24.347656 0.484375 18.65625 C 0.484375 13.582031 4.355469 9.355469 9.445312 8.511719 C 10.332031 3.683594 14.78125 0 20.117188 0 L 20.117188 3.890625 C 16.398438 3.890625 13.375 6.765625 13.375 10.300781 L 13.375 10.484375 C 13.375 11.453125 12.539062 12.246094 11.523438 12.246094 C 7.890625 12.246094 4.769531 14.890625 4.589844 18.335938 C 4.398438 22.015625 7.496094 25.070312 11.328125 25.070312 Z M 11.328125 28.964844 " fill-opacity="1" fill-rule="nonzero"/><path fill="#000000" d="M 11.328125 28.964844 C 5.351562 28.964844 0.484375 24.347656 0.484375 18.65625 C 0.484375 13.582031 4.355469 9.355469 9.445312 8.511719 C 10.332031 3.683594 14.78125 0 20.117188 0 L 20.117188 3.890625 C 16.398438 3.890625 13.375 6.765625 13.375 10.300781 L 13.375 10.484375 C 13.375 11.453125 12.539062 12.246094 11.523438 12.246094 C 7.890625 12.246094 4.769531 14.890625 4.589844 18.335938 C 4.398438 22.015625 7.496094 25.070312 11.328125 25.070312 Z M 11.328125 28.964844 " fill-opacity="0.2" fill-rule="nonzero"/></g></svg>