<svg xmlns="http://www.w3.org/2000/svg" xmlns:xlink="http://www.w3.org/1999/xlink" width="40" zoomAndPan="magnify" viewBox="0 0 30 30.000001" height="40" preserveAspectRatio="xMidYMid meet" version="1.0"><defs><clipPath id="964c2c328e"><path d="M 0.484375 0 L 21 0 L 21 29 L 0.484375 29 Z M 0.484375 0 " clip-rule="nonzero"/></clipPath></defs><path fill="#ffffff" d="M 21.515625 18.664062 L 17.421875 18.664062 C 17.421875 12.984375 22.285156 8.355469 28.273438 8.355469 L 28.273438 12.246094 C 24.550781 12.246094 21.523438 15.121094 21.523438 18.65625 Z M 21.515625 18.664062 " fill-opacity="1" fill-rule="nonzero"/><path fill="#000000" d="M 21.515625 18.664062 L 17.421875 18.664062 C 17.421875 12.984375 22.285156 8.355469 28.273438 8.355469 L 28.273438 12.246094 C 24.550781 12.246094 21.523438 15.121094 21.523438 18.65625 Z M 21.515625 18.664062 " fill-opacity="0.2" fill-rule="nonzero"/><g clip-path="url(#964c2c328e)"><path fill="#ffffff" d="M 11.335938 28.964844 C 5.355469 28.964844 0.484375 24.347656 0.484375 18.65625 C 0.484375 13.582031 4.359375 9.355469 9.449219 8.511719 C 10.339844 3.683594 14.789062 0 20.132812 0 L 20.132812 3.890625 C 16.410156 3.890625 13.382812 6.765625 13.382812 10.300781 L 13.382812 10.484375 C 13.382812 11.453125 12.550781 12.246094 11.53125 12.246094 C 7.894531 12.246094 4.773438 14.890625 4.59375 18.335938 C 4.402344 22.015625 7.5 25.070312 11.335938 25.070312 Z M 11.335938 28.964844 " fill-opacity="1" fill-rule="nonzero"/><path fill="#000000" d="M 11.335938 28.964844 C 5.355469 28.964844 0.484375 24.347656 0.484375 18.65625 C 0.484375 13.582031 4.359375 9.355469 9.449219 8.511719 C 10.339844 3.683594 14.789062 0 20.132812 0 L 20.132812 3.890625 C 16.410156 3.890625 13.382812 6.765625 13.382812 10.300781 L 13.382812 10.484375 C 13.382812 11.453125 12.550781 12.246094 11.53125 12.246094 C 7.894531 12.246094 4.773438 14.890625 4.59375 18.335938 C 4.402344 22.015625 7.5 25.070312 11.335938 25.070312 Z M 11.335938 28.964844 " fill-opacity="0.2" fill-rule="nonzero"/></g></svg>